<svg xmlns="http://www.w3.org/2000/svg" xmlns:xlink="http://www.w3.org/1999/xlink" width="128" height="128"><defs><radialGradient xlink:href="#a" id="b" cx="87.318" cy="57.861" r="58" fx="87.318" fy="57.861" gradientTransform="matrix(-1.1352 .01155 -.01233 -1.21101 180.837 116.061)" gradientUnits="userSpaceOnUse"/><linearGradient id="a"><stop offset="0" style="stop-color:#0f0;stop-opacity:.33"/><stop offset="1" style="stop-color:#0f0;stop-opacity:1"/></linearGradient></defs><path d="M48.5 10c-.831 0-1.5.669-1.5 1.5V47H11.5c-.831 0-1.5.669-1.5 1.5v31c0 .831.669 1.5 1.5 1.5H47v35.5c0 .831.669 1.5 1.5 1.5h31c.831 0 1.5-.669 1.5-1.5V81h35.5c.831 0 1.5-.669 1.5-1.5v-31c0-.831-.669-1.5-1.5-1.5H81V11.5c0-.831-.669-1.5-1.5-1.5Z" style="opacity:1;mix-blend-mode:normal;fill:url(#b);fill-opacity:1;stroke:#00500f;stroke-width:8;stroke-linecap:round;stroke-linejoin:round;stroke-miterlimit:4;stroke-dasharray:none;stroke-dashoffset:11.3372;stroke-opacity:1"/></svg>