<?xml version="1.0" encoding="UTF-8" standalone="no"?>
<svg
   width="512"
   height="512"
   viewBox="0 0 512 512"
   fill="none"
   version="1.1"
   id="svg26"
   sodipodi:docname="img.svg"
   inkscape:version="1.3.2 (091e20e, 2023-11-25)"
   xmlns:inkscape="http://www.inkscape.org/namespaces/inkscape"
   xmlns:sodipodi="http://sodipodi.sourceforge.net/DTD/sodipodi-0.dtd"
   xmlns="http://www.w3.org/2000/svg"
   xmlns:svg="http://www.w3.org/2000/svg">
  <defs
     id="defs26" />
  <sodipodi:namedview
     id="namedview26"
     pagecolor="#ffffff"
     bordercolor="#000000"
     borderopacity="0.25"
     inkscape:showpageshadow="2"
     inkscape:pageopacity="0.0"
     inkscape:pagecheckerboard="0"
     inkscape:deskcolor="#d1d1d1"
     inkscape:zoom="1.1386719"
     inkscape:cx="234.92281"
     inkscape:cy="256"
     inkscape:window-width="1392"
     inkscape:window-height="1212"
     inkscape:window-x="0"
     inkscape:window-y="30"
     inkscape:window-maximized="0"
     inkscape:current-layer="svg26" />
  <!-- transparent background -->
  <!-- Chip pins -->
  <g
     fill="#0b3d91"
     id="g20"
     transform="matrix(1.2698745,0,0,1.300121,-83.811715,-67.853988)">
    <!-- top -->
    <rect
       x="164"
       y="66"
       width="16"
       height="34"
       rx="6"
       id="rect1" />
    <rect
       x="202"
       y="66"
       width="16"
       height="34"
       rx="6"
       id="rect2" />
    <rect
       x="240"
       y="66"
       width="16"
       height="34"
       rx="6"
       id="rect3" />
    <rect
       x="278"
       y="66"
       width="16"
       height="34"
       rx="6"
       id="rect4" />
    <rect
       x="316"
       y="66"
       width="16"
       height="34"
       rx="6"
       id="rect5" />
    <!-- bottom -->
    <rect
       x="164"
       y="412"
       width="16"
       height="34"
       rx="6"
       id="rect6" />
    <rect
       x="202"
       y="412"
       width="16"
       height="34"
       rx="6"
       id="rect7" />
    <rect
       x="240"
       y="412"
       width="16"
       height="34"
       rx="6"
       id="rect8" />
    <rect
       x="278"
       y="412"
       width="16"
       height="34"
       rx="6"
       id="rect9" />
    <rect
       x="316"
       y="412"
       width="16"
       height="34"
       rx="6"
       id="rect10" />
    <!-- left -->
    <rect
       x="66"
       y="164"
       width="34"
       height="16"
       rx="6"
       id="rect11" />
    <rect
       x="66"
       y="202"
       width="34"
       height="16"
       rx="6"
       id="rect12" />
    <rect
       x="66"
       y="240"
       width="34"
       height="16"
       rx="6"
       id="rect13" />
    <rect
       x="66"
       y="278"
       width="34"
       height="16"
       rx="6"
       id="rect14" />
    <rect
       x="66"
       y="316"
       width="34"
       height="16"
       rx="6"
       id="rect15" />
    <!-- right -->
    <rect
       x="412"
       y="164"
       width="34"
       height="16"
       rx="6"
       id="rect16" />
    <rect
       x="412"
       y="202"
       width="34"
       height="16"
       rx="6"
       id="rect17" />
    <rect
       x="412"
       y="240"
       width="34"
       height="16"
       rx="6"
       id="rect18" />
    <rect
       x="412"
       y="278"
       width="34"
       height="16"
       rx="6"
       id="rect19" />
    <rect
       x="412"
       y="316"
       width="34"
       height="16"
       rx="6"
       id="rect20" />
  </g>
  <!-- Chip body -->
  <rect
     x="43.175735"
     y="62.158123"
     width="396.20084"
     height="405.63776"
     rx="71.112968"
     fill="#1e90ff"
     stroke="#0b3d91"
     stroke-width="15.4189"
     id="rect21" />
  <!-- Inner chip panel -->
  <rect
     x="81.271973"
     y="101.16176"
     width="320.00836"
     height="327.63052"
     rx="50.794979"
     fill="#1390ff"
     id="rect22"
     style="stroke-width:1.28491" />
  <!-- AI text -->
  <text
     x="238.19341"
     y="336.00137"
     text-anchor="middle"
     font-family="Arial, Helvetica, sans-serif"
     font-size="198.28px"
     font-weight="700"
     fill="#ffffff"
     id="text22"
     transform="scale(1.0410824,0.96053873)"
     style="stroke-width:2.30559">AI</text>
  <!-- Chat bubble in upper right -->
  <g
     id="g26"
     transform="matrix(1.3785881,0,0,1.5547959,-75.447644,-197.5496)">
    <path
       d="m 275,132 h 95 c 22.091,0 40,17.909 40,40 v 45 c 0,22.091 -17.909,40 -40,40 h -43 l -30,25 c -8.439,7.033 -21,1.032 -21,-9.954 V 257 h -1 c -22.091,0 -40,-17.909 -40,-40 v -45 c 0,-22.091 17.909,-40 40,-40 z"
       fill="#ffffff"
       stroke="#0b3d91"
       stroke-width="10"
       stroke-linejoin="round"
       id="path22" />
    <rect
       x="264"
       y="168"
       width="116"
       height="12"
       rx="6"
       fill="#59b2ff"
       id="rect23" />
    <rect
       x="264"
       y="194"
       width="88"
       height="12"
       rx="6"
       fill="#59b2ff"
       id="rect24" />
    <circle
       cx="274"
       cy="225"
       r="8"
       fill="#59b2ff"
       id="circle24" />
    <circle
       cx="302"
       cy="225"
       r="8"
       fill="#59b2ff"
       id="circle25" />
    <circle
       cx="330"
       cy="225"
       r="8"
       fill="#59b2ff"
       id="circle26" />
  </g>
</svg>
