<?xml version="1.0" encoding="UTF-8" standalone="no"?>
<svg
   width="128"
   height="128"
   version="1.1"
   id="svg16"
   xmlns:xlink="http://www.w3.org/1999/xlink"
   xmlns="http://www.w3.org/2000/svg"
   xmlns:svg="http://www.w3.org/2000/svg">
  <defs
     id="defs20">
    <radialGradient
       xlink:href="#a"
       id="b"
       cx="87.318001"
       cy="57.861"
       r="58"
       fx="87.318001"
       fy="57.861"
       gradientTransform="matrix(-0.88075866,0.00896121,-0.00956639,-0.93957664,154.64941,95.392148)"
       gradientUnits="userSpaceOnUse" />
    <linearGradient
       id="a">
      <stop
         offset="0"
         style="stop-color:#0f0;stop-opacity:.33"
         id="stop3" />
      <stop
         offset="1"
         style="stop-color:#0f0;stop-opacity:1"
         id="stop5" />
    </linearGradient>
  </defs>
  <g
     style="display:inline"
     id="g4">
    <path
       d="M10 78v40h108V78"
       style="display:inline;fill:none;stroke:#000;stroke-width:16;stroke-linecap:butt;stroke-linejoin:miter;stroke-miterlimit:4;stroke-dasharray:none;stroke-opacity:1"
       id="path2" />
  </g>
  <path
     d="m 51.974133,13.103447 c -0.64474,0 -1.163791,0.519051 -1.163791,1.163792 V 41.810341 H 23.267237 c -0.644741,0 -1.163792,0.519051 -1.163792,1.163793 v 24.051722 c 0,0.644742 0.519051,1.163792 1.163792,1.163792 h 27.543105 v 27.543106 c 0,0.644742 0.519051,1.16379 1.163791,1.16379 h 24.051728 c 0.644741,0 1.163793,-0.519048 1.163793,-1.16379 V 68.189648 h 27.543106 c 0.64473,0 1.16379,-0.51905 1.16379,-1.163792 V 42.974134 c 0,-0.644742 -0.51906,-1.163793 -1.16379,-1.163793 H 77.189654 V 14.267239 c 0,-0.644741 -0.519052,-1.163792 -1.163793,-1.163792 z"
     style="mix-blend-mode:normal;fill:url(#b);fill-opacity:1;stroke:#00500f;stroke-width:6.20689;stroke-linecap:round;stroke-linejoin:round;stroke-miterlimit:4;stroke-dasharray:none;stroke-dashoffset:11.3372;stroke-opacity:1"
     id="path10-5" />
</svg>
