<?xml version="1.0" encoding="UTF-8" standalone="no"?>
<svg
   width="512"
   height="512"
   viewBox="0 0 512 512"
   fill="none"
   version="1.1"
   id="svg34"
   sodipodi:docname="range-ai_settings.svg"
   inkscape:version="1.3.2 (091e20e, 2023-11-25)"
   xmlns:inkscape="http://www.inkscape.org/namespaces/inkscape"
   xmlns:sodipodi="http://sodipodi.sourceforge.net/DTD/sodipodi-0.dtd"
   xmlns="http://www.w3.org/2000/svg"
   xmlns:svg="http://www.w3.org/2000/svg">
  <defs
     id="defs34" />
  <sodipodi:namedview
     id="namedview34"
     pagecolor="#ffffff"
     bordercolor="#000000"
     borderopacity="0.25"
     inkscape:showpageshadow="2"
     inkscape:pageopacity="0.0"
     inkscape:pagecheckerboard="0"
     inkscape:deskcolor="#d1d1d1"
     inkscape:zoom="1.1386719"
     inkscape:cx="256"
     inkscape:cy="250.7307"
     inkscape:window-width="1392"
     inkscape:window-height="1212"
     inkscape:window-x="0"
     inkscape:window-y="30"
     inkscape:window-maximized="0"
     inkscape:current-layer="svg34" />
  <!-- transparent background -->
  <!-- Chip pins -->
  <g
     fill="#0b3d91"
     id="g20"
     transform="matrix(1.2984833,0,0,1.2799946,-85.699902,-58.877587)">
    <!-- top -->
    <rect
       x="164"
       y="66"
       width="16"
       height="34"
       rx="6"
       id="rect1" />
    <rect
       x="202"
       y="66"
       width="16"
       height="34"
       rx="6"
       id="rect2" />
    <rect
       x="240"
       y="66"
       width="16"
       height="34"
       rx="6"
       id="rect3" />
    <rect
       x="278"
       y="66"
       width="16"
       height="34"
       rx="6"
       id="rect4" />
    <rect
       x="316"
       y="66"
       width="16"
       height="34"
       rx="6"
       id="rect5" />
    <!-- bottom -->
    <rect
       x="164"
       y="412"
       width="16"
       height="34"
       rx="6"
       id="rect6" />
    <rect
       x="202"
       y="412"
       width="16"
       height="34"
       rx="6"
       id="rect7" />
    <rect
       x="240"
       y="412"
       width="16"
       height="34"
       rx="6"
       id="rect8" />
    <rect
       x="278"
       y="412"
       width="16"
       height="34"
       rx="6"
       id="rect9" />
    <rect
       x="316"
       y="412"
       width="16"
       height="34"
       rx="6"
       id="rect10" />
    <!-- left -->
    <rect
       x="66"
       y="164"
       width="34"
       height="16"
       rx="6"
       id="rect11" />
    <rect
       x="66"
       y="202"
       width="34"
       height="16"
       rx="6"
       id="rect12" />
    <rect
       x="66"
       y="240"
       width="34"
       height="16"
       rx="6"
       id="rect13" />
    <rect
       x="66"
       y="278"
       width="34"
       height="16"
       rx="6"
       id="rect14" />
    <rect
       x="66"
       y="316"
       width="34"
       height="16"
       rx="6"
       id="rect15" />
    <!-- right -->
    <rect
       x="412"
       y="164"
       width="34"
       height="16"
       rx="6"
       id="rect16" />
    <rect
       x="412"
       y="202"
       width="34"
       height="16"
       rx="6"
       id="rect17" />
    <rect
       x="412"
       y="240"
       width="34"
       height="16"
       rx="6"
       id="rect18" />
    <rect
       x="412"
       y="278"
       width="34"
       height="16"
       rx="6"
       id="rect19" />
    <rect
       x="412"
       y="316"
       width="34"
       height="16"
       rx="6"
       id="rect20" />
  </g>
  <!-- Chip body -->
  <rect
     x="44.148438"
     y="69.121887"
     width="405.1268"
     height="399.35831"
     rx="72.715073"
     fill="#1e90ff"
     stroke="#0b3d91"
     stroke-width="14.5307"
     id="rect21" />
  <!-- Inner chip panel -->
  <rect
     x="83.102936"
     y="107.52172"
     width="327.2178"
     height="322.55865"
     rx="51.939335"
     fill="#1390ff"
     id="rect22"
     style="stroke-width:1.2892" />
  <!-- AI text -->
  <!-- Gear in upper right, replacing bubble -->
  <text
     x="233.43661"
     y="342.73486"
     text-anchor="middle"
     font-family="Arial, Helvetica, sans-serif"
     font-size="198.28px"
     font-weight="700"
     fill="#ffffff"
     id="text22"
     transform="scale(1.0410824,0.96053876)"
     style="stroke-width:2.30559">AI</text>
  <g
     transform="matrix(2.1344855,0,0,2.1485596,369.05748,144.0158)"
     id="g34">
    <!-- teeth -->
    <rect
       x="-8"
       y="-64"
       width="16"
       height="24"
       rx="4"
       fill="#ffffff"
       stroke="#0b3d91"
       stroke-width="6"
       id="rect23" />
    <rect
       x="-8"
       y="40"
       width="16"
       height="24"
       rx="4"
       fill="#ffffff"
       stroke="#0b3d91"
       stroke-width="6"
       id="rect24" />
    <rect
       x="-64"
       y="-8"
       width="24"
       height="16"
       rx="4"
       fill="#ffffff"
       stroke="#0b3d91"
       stroke-width="6"
       id="rect25" />
    <rect
       x="40"
       y="-8"
       width="24"
       height="16"
       rx="4"
       fill="#ffffff"
       stroke="#0b3d91"
       stroke-width="6"
       id="rect26" />
    <rect
       x="-8"
       y="-64"
       width="16"
       height="24"
       rx="4"
       fill="#ffffff"
       stroke="#0b3d91"
       stroke-width="6"
       transform="rotate(45)"
       id="rect27" />
    <rect
       x="-8"
       y="-64"
       width="16"
       height="24"
       rx="4"
       fill="#ffffff"
       stroke="#0b3d91"
       stroke-width="6"
       transform="rotate(90)"
       id="rect28" />
    <rect
       x="-8"
       y="-64"
       width="16"
       height="24"
       rx="4"
       fill="#ffffff"
       stroke="#0b3d91"
       stroke-width="6"
       transform="rotate(135)"
       id="rect29" />
    <rect
       x="-8"
       y="-64"
       width="16"
       height="24"
       rx="4"
       fill="#ffffff"
       stroke="#0b3d91"
       stroke-width="6"
       transform="scale(-1)"
       id="rect30" />
    <rect
       x="-8"
       y="-64"
       width="16"
       height="24"
       rx="4"
       fill="#ffffff"
       stroke="#0b3d91"
       stroke-width="6"
       transform="rotate(-135)"
       id="rect31" />
    <rect
       x="-8"
       y="-64"
       width="16"
       height="24"
       rx="4"
       fill="#ffffff"
       stroke="#0b3d91"
       stroke-width="6"
       transform="rotate(-90)"
       id="rect32" />
    <rect
       x="-8"
       y="-64"
       width="16"
       height="24"
       rx="4"
       fill="#ffffff"
       stroke="#0b3d91"
       stroke-width="6"
       transform="rotate(-45)"
       id="rect33" />
    <!-- gear body -->
    <circle
       cx="0"
       cy="0"
       r="42"
       fill="#ffffff"
       stroke="#0b3d91"
       stroke-width="10"
       id="circle33" />
    <circle
       cx="0"
       cy="0"
       r="16"
       fill="#59b2ff"
       stroke="#0b3d91"
       stroke-width="8"
       id="circle34" />
  </g>
</svg>
